<?xml version="1.0" standalone="no"?>
<!DOCTYPE svg PUBLIC "-//W3C//DTD SVG 20010904//EN"
 "http://www.w3.org/TR/2001/REC-SVG-20010904/DTD/svg10.dtd">
<svg version="1.0" xmlns="http://www.w3.org/2000/svg"
 width="535.000000pt" height="535.000000pt" viewBox="0 0 535.000000 535.000000"
 preserveAspectRatio="xMidYMid meet">
<metadata>
Created by potrace 1.14, written by Peter Selinger 2001-2017
</metadata>
<g transform="translate(0.000000,535.000000) scale(0.100000,-0.100000)"
fill="#000000" stroke="none">
<path d="M500 5163 c0 -9 6 -42 14 -72 19 -71 56 -234 62 -269 3 -15 7 -34 9
-42 3 -8 7 -33 10 -55 4 -22 8 -51 11 -65 2 -14 5 -76 5 -139 l2 -115 -29 -24
c-212 -178 -337 -332 -437 -542 -45 -96 -99 -251 -112 -325 -4 -22 -9 -49 -12
-60 -25 -126 -25 -390 1 -530 46 -249 166 -506 325 -695 63 -74 166 -174 235
-228 l29 -23 -1 -597 c-3 -718 1 -656 -62 -947 -22 -99 -42 -197 -45 -217 l-6
-36 581 0 c530 0 580 2 580 17 0 9 -5 36 -11 61 -6 25 -13 56 -15 70 -3 14
-10 43 -16 65 -5 22 -11 47 -13 55 -2 8 -10 44 -18 80 -8 36 -18 87 -22 113
-3 27 -9 59 -12 70 -2 12 -6 237 -7 500 -1 422 0 477 14 478 62 3 124 10 180
20 36 6 74 13 85 14 11 2 68 17 127 34 293 86 534 206 859 427 549 373 738
483 919 534 408 114 840 -80 1023 -462 64 -133 81 -213 81 -378 -1 -170 -18
-249 -84 -382 -67 -134 -148 -229 -305 -358 -208 -171 -513 -317 -745 -356
-14 -3 -50 -9 -80 -15 -109 -19 -225 -22 -872 -23 -362 -1 -658 -4 -658 -7 0
-4 15 -18 33 -32 17 -13 42 -33 54 -43 11 -11 38 -33 60 -51 21 -17 146 -121
278 -231 l240 -200 1058 0 c793 0 1057 3 1057 12 0 6 -5 27 -10 46 -6 19 -12
46 -15 60 -5 29 -8 39 -29 135 -51 227 -56 254 -61 404 l-5 124 105 100 c179
168 298 339 381 546 135 334 146 697 32 1046 -43 134 -117 278 -208 407 -66
93 -204 241 -272 292 l-37 28 3 636 c2 351 5 646 8 657 3 11 9 40 13 65 8 47
82 392 91 423 5 16 -28 17 -590 17 -328 0 -596 -4 -596 -8 0 -5 6 -31 14 -58
31 -109 77 -282 81 -305 3 -13 7 -35 10 -49 7 -36 13 -78 21 -135 11 -88 11
-925 -1 -934 -5 -4 -37 -9 -70 -10 -33 -1 -67 -4 -75 -6 -8 -2 -26 -6 -40 -9
-52 -8 -258 -69 -370 -108 -245 -87 -441 -193 -785 -427 -209 -142 -433 -289
-491 -322 -19 -10 -49 -27 -66 -37 -157 -89 -271 -135 -372 -150 -101 -14
-276 -6 -359 17 -166 46 -282 113 -402 235 -183 185 -255 350 -259 600 -3 137
27 274 84 387 104 204 331 410 610 555 205 107 382 159 665 194 33 4 357 8
720 8 363 1 669 1 680 2 17 0 14 5 -15 28 -19 15 -69 56 -110 92 -42 36 -100
85 -130 110 -59 50 -198 168 -245 209 -17 14 -56 47 -87 74 l-56 47 -1066 0
c-993 0 -1066 -1 -1066 -17z"/>
</g>
</svg>
